# xmcd CD database file
#
# Track frame offsets:
#	150
#	39695
#	61022
#	85854
#	114717
#	135455
#	165071
#	214416
#	244423
#	268937
#	297376
#	313351
#
# Disc length: 4649 seconds
#
# Revision: 0
# Processed by: cddbd v1.5.2PL0 Copyright (c) Steve Scherf et al.
# Submitted via: CDex 1.70beta2
#
DISCID=b512270c
DTITLE=Oliver Nelson - The Blues And The Abstract Truth
DYEAR=1960
DGENRE=Jazz
TTITLE0=Stolen Moments
TTITLE1=Hoe-Down
TTITLE2=Cascades
TTITLE3=Yearnin'
TTITLE4=Butch And Butch
TTITLE5=Teenie's Blues
TTITLE6=Screamin' The Blues
TTITLE7=The Meetin'
TTITLE8=Walk Away
TTITLE9=Tranes Whistle
TTITLE10=Whole Nelson
TTITLE11=The Stolen Moment
EXTD=YEAR: 1960
EXTT0=
EXTT1=
EXTT2=
EXTT3=
EXTT4=
EXTT5=
EXTT6=
EXTT7=
EXTT8=
EXTT9=
EXTT10=
EXTT11=
PLAYORDER=
